HIERARCHY
ROOT hip
{
	OFFSET 0.000000 0.000000 0.000000 
	CHANNELS 6 Xposition Yposition Zposition Xrotation Zrotation Yrotation
	JOINT abdomen
	{
		OFFSET 0.000000 3.402643 0.000000 
		CHANNELS 3 Xrotation Zrotation Yrotation
		JOINT chest
		{
			OFFSET 0.000000 8.438565 -0.680529 
			CHANNELS 3 Xrotation Zrotation Yrotation
			JOINT neck
			{
				OFFSET 0.000000 10.207942 -0.272212 
				CHANNELS 3 Xrotation Zrotation Yrotation
				JOINT head
				{
					OFFSET 0.000000 3.130431 0.000000 
					CHANNELS 3 Xrotation Zrotation Yrotation
					End Site
					{
						OFFSET 0.000000 3.130435 0.000000 
					}
				}
			}
			JOINT lCollar
			{
				OFFSET 3.470700 6.669187 -0.816635 
				CHANNELS 3 Yrotation Zrotation Xrotation
				JOINT lShldr
				{
					OFFSET 3.198488 0.000000 0.000000 
					CHANNELS 3 Zrotation Yrotation Xrotation
					JOINT lForeArm
					{
						OFFSET 10.139888 0.000000 0.000000 
						CHANNELS 3 Yrotation Zrotation Xrotation
						JOINT lHand
						{
							OFFSET 8.370511 0.000000 0.000000 
							CHANNELS 3 Zrotation Yrotation Xrotation
							End Site
							{
								OFFSET 4.083176 0.000000 0.000000 
							}
						}
					}
				}
			}
			JOINT rCollar
			{
				OFFSET -3.470700 6.669187 -0.816635 
				CHANNELS 3 Yrotation Zrotation Xrotation
				JOINT rShldr
				{
					OFFSET -3.198488 0.000000 0.000000 
					CHANNELS 3 Zrotation Yrotation Xrotation
					JOINT rForeArm
					{
						OFFSET -10.139888 0.000000 0.000000 
						CHANNELS 3 Yrotation Zrotation Xrotation
						JOINT rHand
						{
							OFFSET -8.370511 0.000000 0.000000 
							CHANNELS 3 Zrotation Yrotation Xrotation
							End Site
							{
								OFFSET -4.083176 0.000000 0.000000 
							}
						}
					}
				}
			}
		}
	}
	JOINT lThigh
	{
		OFFSET 5.308129 -1.633274 1.361059 
		CHANNELS 3 Xrotation Zrotation Yrotation
		JOINT lShin
		{
			OFFSET -2.041588 -20.007561 0.000000 
			CHANNELS 3 Xrotation Zrotation Yrotation
			JOINT lFoot
			{
				OFFSET 0.000000 -19.190928 -1.224953 
				CHANNELS 3 Xrotation Yrotation Zrotation
				End Site
				{
					OFFSET 0.000000 -2.449906 4.627600 
				}
			}
		}
	}
	JOINT rThigh
	{
		OFFSET -5.308129 -1.633274 1.361059 
		CHANNELS 3 Xrotation Zrotation Yrotation
		JOINT rShin
		{
			OFFSET 2.041588 -20.007561 0.000000 
			CHANNELS 3 Xrotation Zrotation Yrotation
			JOINT rFoot
			{
				OFFSET 0.000000 -19.190928 -1.224953 
				CHANNELS 3 Xrotation Yrotation Zrotation
				End Site
				{
					OFFSET 0.000000 -2.449906 4.627600 
				}
			}
		}
	}
}
MOTION
Frames: 15
Frame Time: 0.033333
2.678980 44.833500 -0.939969 5.292969 -1.708984 -2.900682 55.797729 -0.200014 0.978382 -5.566404 10.664064 12.052588 19.452675 0.586648 -0.039374 -2.382813 -1.835937 -0.439766 2.000000 -2.000000 0.000000 7.851563 49.316406 -17.463299 -40.334888 -3.270740 38.716930 -12.531401 20.922880 -64.299805 -2.000000 2.000000 0.000000 -20.566408 -24.208986 62.187500 17.832638 -15.644251 -48.085022 27.637262 -28.470436 -77.342499 15.780573 7.363248 19.237133 1.552498 1.587920 1.067776 15.798065 -13.935185 -4.694551 8.280597 -10.458445 -2.205421 4.301614 1.423755 -0.179490 17.424353 2.779392 45.004463 
2.834937 44.843708 -0.979589 5.166016 -1.494141 -3.369395 55.797729 -0.200014 0.978382 -5.585938 10.312501 11.954872 20.017719 1.184983 -0.001492 -2.519532 -2.236328 0.000000 2.000000 -2.000000 0.000000 6.650390 49.628906 -18.330078 -39.568760 -1.604791 37.498817 -12.341351 20.881149 -64.261360 -2.000000 2.000000 0.000000 -20.703125 -22.978516 62.418060 17.045193 -14.236895 -52.228672 25.577818 -29.330765 -76.650185 15.892384 6.806094 18.998398 1.592076 1.831779 1.124835 15.771021 -13.591731 -5.232777 7.245398 -11.084432 -2.403426 6.109971 1.843996 0.063379 16.624762 3.130107 44.853264 
2.928339 44.846195 -1.026403 5.048828 -1.845703 -4.267578 55.797729 -0.200014 0.978382 -5.283203 10.810547 12.130738 20.213587 0.984564 -0.020558 -2.226563 -1.240234 0.371094 2.000000 -2.000000 0.000000 6.015625 50.449219 -18.928019 -38.390224 -1.256964 35.706703 -13.124434 21.380703 -64.608170 -2.000000 2.000000 0.000000 -21.123049 -21.591797 62.412109 16.634497 -13.073326 -57.202747 23.333288 -30.786285 -75.766853 16.351593 7.030684 19.067554 1.457880 1.649101 1.089527 16.018787 -13.187989 -6.529504 5.689187 -11.145424 -2.369316 8.761272 2.321383 0.362183 14.920134 4.543127 46.895664 
3.019598 44.848690 -1.148647 5.527344 -2.255859 -5.303119 55.797729 -0.200014 0.978382 -5.263672 11.640625 12.314454 20.136225 0.615615 -0.043756 -2.695313 -0.976563 0.498047 2.000000 -2.000000 0.000000 5.439453 51.562500 -19.628906 -37.677456 -1.169246 35.701191 -13.960382 22.067293 -65.010544 -2.000000 2.000000 0.000000 -21.962893 -20.478516 62.451172 16.738514 -12.405852 -62.277603 21.016228 -32.997040 -74.559135 15.986383 7.498830 19.288202 1.562961 1.345391 0.980741 16.197790 -12.419331 -7.141784 2.635683 -11.325023 -2.360584 12.839880 3.191769 0.829116 11.986546 6.295742 50.692898 
3.163636 44.813007 -1.321034 6.542969 -1.992187 -6.260106 55.797729 -0.200014 0.978382 -5.722656 11.962891 12.326244 19.765417 0.397346 -0.050241 -3.095704 -0.048828 0.341797 2.000000 -2.000000 0.000000 4.990234 53.066406 -20.390627 -37.634975 -1.295237 36.814438 -14.678138 22.391298 -65.296455 -2.000000 2.000000 0.000000 -22.802734 -19.375000 62.392574 16.557596 -11.816457 -67.322884 18.813091 -34.941658 -73.371346 14.631447 7.138182 19.225834 2.062137 1.366157 0.977268 16.105000 -11.491434 -7.268216 -1.581803 -12.621134 -2.672346 17.735748 4.636271 1.558832 8.865371 6.596105 53.273396 
3.264293 44.810963 -1.405635 6.708984 -1.679688 -7.168254 55.797729 -0.200014 0.978382 -5.458983 12.099608 12.394627 19.716013 0.777412 -0.018850 -3.798830 -0.068359 -0.400391 2.000000 -2.000000 0.000000 4.316407 54.550785 -21.212746 -37.585934 -1.005350 37.383118 -15.486917 22.424376 -65.544945 -2.000000 2.000000 0.000000 -23.271484 -18.115234 62.301651 15.590786 -11.534876 -71.583633 17.066235 -36.362289 -72.373795 14.502650 6.708304 19.068691 2.069296 1.335268 0.947571 16.097036 -10.545893 -7.983665 -4.042712 -14.002645 -3.077275 21.123661 6.070590 2.206747 7.063624 4.477434 53.788982 
3.300591 44.829121 -1.442997 6.464844 -1.611328 -8.007812 55.797729 -0.200014 0.978382 -4.785158 12.500000 12.587892 19.881371 1.053615 -0.021127 -4.511719 0.478516 -1.162108 2.000000 -2.000000 0.000000 3.496094 55.673828 -22.052481 -37.244415 -0.673889 36.736389 -15.606526 22.631546 -65.626244 -2.000000 2.000000 0.000000 -23.789063 -17.138672 62.331104 14.649535 -11.735244 -75.062965 15.432860 -37.641365 -71.426086 15.173284 6.504356 18.945253 1.588588 1.269875 0.989987 16.280527 -9.821367 -8.747097 -4.990088 -15.057003 -3.365329 22.592405 7.283473 2.562624 6.430616 0.002091 55.046925 
3.314039 44.797432 -1.566049 7.187500 -1.269531 -8.759767 55.797729 -0.200014 0.978382 -5.009766 12.910156 12.656250 19.811272 1.574702 0.028452 -4.931641 1.201172 -2.470704 2.000000 -2.000000 0.000000 2.724609 56.591797 -22.902004 -36.550728 -0.593683 35.361847 -14.890258 22.746403 -65.404228 -2.000000 2.000000 0.000000 -24.755859 -16.425779 62.438644 14.527114 -11.677972 -78.710045 13.075815 -38.726334 -70.389946 14.380569 6.113274 18.849058 1.486600 1.541327 1.040473 16.624899 -9.264325 -9.118931 -6.843827 -16.244368 -3.708178 23.340996 8.112394 2.806466 7.279966 -6.168267 56.177826 
3.308877 44.779835 -1.722817 8.242188 -0.566406 -9.209081 55.797729 -0.200014 0.978382 -5.605467 13.085938 12.609633 19.758436 2.371985 0.075800 -5.136720 1.337891 -3.515625 2.000000 -2.000000 0.000000 2.382812 57.382809 -23.505859 -36.162491 -0.744349 34.833218 -14.178076 22.656738 -65.108017 -2.000000 2.000000 0.000000 -25.615232 -15.625002 62.546200 14.128819 -10.982146 -82.417694 10.948285 -39.497612 -69.513161 12.660762 5.429349 18.654093 2.002710 1.998891 1.144987 16.739956 -8.713947 -8.995573 -8.874038 -17.658384 -4.101605 23.169857 8.611602 2.918135 11.315982 -12.625294 57.869434 
3.255904 44.797314 -1.810905 8.847655 -0.019531 -9.736328 55.797729 -0.200014 0.978382 -5.849608 13.505860 12.658529 19.732227 3.302084 0.151974 -4.833984 2.490234 -4.521485 2.000000 -2.000000 0.000000 2.128906 58.144531 -24.151861 -36.257442 -0.964047 35.385166 -13.960829 23.083071 -65.089836 -2.000000 2.000000 0.000000 -25.966797 -13.955080 62.243740 12.394642 -9.536913 -85.057083 10.133264 -39.858654 -69.061035 11.537697 4.999830 18.563457 2.747207 2.313177 1.111849 16.427330 -7.743610 -8.911294 -10.026506 -18.655846 -4.411960 22.081860 8.854321 2.863693 18.284010 -17.186609 61.169884 
3.132849 44.795494 -1.835447 9.179688 0.302735 -10.751965 55.797729 -0.200014 0.978382 -5.781249 14.296876 12.873504 20.095827 4.100803 0.208324 -5.458985 2.353515 -5.585938 2.000000 -2.000000 0.000000 1.767578 59.189457 -24.991613 -36.556129 -0.935248 37.095020 -14.126125 23.906103 -65.257927 -2.000000 2.000000 0.000000 -26.474607 -11.787109 61.814415 10.944411 -8.099588 -87.291214 9.286340 -40.005180 -68.743874 11.118857 4.970502 18.585184 3.311062 2.176050 1.070868 15.789439 -6.291974 -8.929014 -11.229753 -18.943851 -4.474277 21.591236 8.970029 2.853390 24.708284 -18.893549 63.057964 
2.978568 44.774368 -1.846444 9.384766 0.888672 -11.787108 55.797729 -0.200014 0.978382 -5.507813 14.912109 13.078685 20.115770 4.921737 0.280913 -5.439454 2.568359 -6.337891 2.000000 -2.000000 0.000000 1.767578 60.566410 -25.518837 -37.220325 -1.088227 38.884541 -13.672281 24.807367 -65.202843 -2.000000 2.000000 0.000000 -27.431641 -10.527344 61.738285 11.460330 -7.928336 -90.331291 6.985952 -40.705280 -67.879501 10.973967 4.814220 18.521324 3.675410 1.895088 0.991246 15.225130 -4.787867 -9.131054 -12.791043 -19.205666 -4.503430 22.385656 9.270073 2.993319 27.262072 -19.558149 62.030277 
2.842170 44.749214 -1.873917 9.355469 1.992188 -12.255520 55.797729 -0.200014 0.978382 -5.136718 14.941406 13.137284 19.845211 6.708350 0.403851 -6.689454 2.851562 -8.281252 2.000000 -2.000000 0.000000 1.806641 61.484379 -26.035158 -38.000061 -1.289470 39.904175 -12.385942 25.647949 -64.819145 -2.000000 2.000000 0.000000 -27.998047 -9.609375 61.463211 11.943583 -7.733969 -92.560936 4.794653 -41.333580 -67.092476 10.795818 3.866907 18.196827 3.759166 1.902787 0.989353 14.850833 -3.747693 -9.240602 -14.274682 -20.210323 -4.821311 23.879040 10.036024 3.314330 26.595856 -21.181786 59.491249 
2.671677 44.715839 -1.894356 9.316407 3.056641 -12.372525 55.797729 -0.200014 0.978382 -4.814451 15.039064 13.215425 19.267664 8.757496 0.562997 -7.578125 2.998047 -10.390626 2.000000 -2.000000 0.000000 1.357422 61.337891 -26.943361 -38.466713 -0.962108 40.774025 -11.466866 26.201950 -64.455643 -2.000000 2.000000 0.000000 -28.095701 -8.632813 60.975094 11.650131 -6.875341 -93.632545 3.878906 -41.406452 -66.850563 10.570803 2.988719 17.878923 3.757847 1.992876 1.020114 14.669651 -3.185138 -9.187932 -15.376477 -21.203560 -5.098389 25.112349 10.769372 3.565519 25.650023 -24.030428 55.403320 
2.405399 44.662586 -1.940518 9.775391 3.632813 -12.821646 55.797729 -0.200014 0.978382 -4.794923 15.839844 13.417969 18.857765 11.048264 0.750006 -8.544922 2.998047 -13.056133 2.000000 -2.000000 0.000000 0.947266 61.025391 -27.891848 -38.900623 -0.424035 41.895008 -11.537665 26.505646 -64.408249 -2.000000 2.000000 0.000000 -28.066406 -6.875000 60.263668 11.048923 -5.020775 -94.025986 4.041964 -40.782307 -67.217781 9.897896 2.997962 17.923698 4.094338 1.972618 0.973807 14.612816 -2.826008 -9.821866 -16.833864 -21.325089 -5.089544 26.177334 11.155122 3.745580 24.750471 -25.647017 52.865452 
